# Blender v2.83.5 OBJ File: ''
# www.blender.org
o Cube
v 1.000000 1.000000 -1.000000
v 1.000000 -1.000000 -1.000000
v 1.000000 1.000000 1.000000
v 1.000000 -1.000000 1.000000
v -1.000000 1.000000 -1.000000
v -1.000000 -1.000000 -1.000000
v -1.000000 1.000000 1.000000
v -1.000000 -1.000000 1.000000
v 2.606321 1.000000 -1.000000
v 2.606321 -1.000000 -1.000000
v 2.606321 1.000000 1.000000
v 2.606321 -1.000000 1.000000
v 5.975348 1.000000 -1.000000
v 5.975348 -1.000000 -1.000000
v 5.975348 1.000000 1.000000
v 5.975348 -1.000000 1.000000
v 8.679851 1.000000 -1.000000
v 8.679851 -1.000000 -1.000000
v 8.679851 1.000000 1.000000
v 8.679851 -1.000000 1.000000
v 16.536701 1.000000 -1.000000
v 16.536701 -1.000000 -1.000000
v 16.536701 1.000000 1.000000
v 16.536701 -1.000000 1.000000
v 8.679851 1.000000 -15.169294
v 8.679851 -1.000000 -15.169294
v 16.536701 1.000000 -15.169294
v 16.536701 -1.000000 -15.169294
vn 0.0000 1.0000 0.0000
vn 0.0000 0.0000 1.0000
vn -1.0000 0.0000 0.0000
vn 0.0000 -1.0000 0.0000
vn 0.0000 0.0000 -1.0000
vn 1.0000 0.0000 0.0000
s off
f 5//1 3//1 1//1
f 3//2 8//2 4//2
f 7//3 6//3 8//3
f 2//4 8//4 6//4
f 4//2 11//2 3//2
f 5//5 2//5 6//5
f 10//4 16//4 12//4
f 1//5 10//5 2//5
f 2//4 12//4 4//4
f 3//1 9//1 1//1
f 16//2 19//2 15//2
f 12//2 15//2 11//2
f 11//1 13//1 9//1
f 9//5 14//5 10//5
f 19//1 21//1 17//1
f 15//1 17//1 13//1
f 13//5 18//5 14//5
f 14//4 20//4 16//4
f 21//6 24//6 22//6
f 21//1 25//1 17//1
f 18//4 24//4 20//4
f 20//2 23//2 19//2
f 25//5 28//5 26//5
f 17//3 26//3 18//3
f 18//4 28//4 22//4
f 22//6 27//6 21//6
f 5//1 7//1 3//1
f 3//2 7//2 8//2
f 7//3 5//3 6//3
f 2//4 4//4 8//4
f 4//2 12//2 11//2
f 5//5 1//5 2//5
f 10//4 14//4 16//4
f 1//5 9//5 10//5
f 2//4 10//4 12//4
f 3//1 11//1 9//1
f 16//2 20//2 19//2
f 12//2 16//2 15//2
f 11//1 15//1 13//1
f 9//5 13//5 14//5
f 19//1 23//1 21//1
f 15//1 19//1 17//1
f 13//5 17//5 18//5
f 14//4 18//4 20//4
f 21//6 23//6 24//6
f 21//1 27//1 25//1
f 18//4 22//4 24//4
f 20//2 24//2 23//2
f 25//5 27//5 28//5
f 17//3 25//3 26//3
f 18//4 26//4 28//4
f 22//6 28//6 27//6
